<svg xmlns="http://www.w3.org/2000/svg" width="500" height="500" viewBox="0 0 500 500"><rect width="500" height="500" fill="#0a1026"/><defs><radialGradient id="neb" cx="50%%" cy="50%%" r="50%%"><stop offset="0%%" stop-color="#2a3f8f" stop-opacity="0.22"/><stop offset="100%%" stop-color="#2a3f8f" stop-opacity="0"/></radialGradient></defs><circle cx="165" cy="485" r="109" fill="url(#neb)"/><circle cx="202" cy="333" r="96" fill="url(#neb)"/><circle cx="37" cy="420" r="158" fill="url(#neb)"/><circle cx="48" cy="187" r="164" fill="url(#neb)"/><circle cx="29" cy="465" r="154" fill="url(#neb)"/><circle cx="109" cy="19" r="101" fill="url(#neb)"/><circle cx="216.8" cy="34.9" r="0.61" fill="#cfe0ff" opacity="0.68"/><circle cx="61.9" cy="111.6" r="1.25" fill="#cfe0ff" opacity="0.97"/><circle cx="292.8" cy="24.8" r="0.77" fill="#ffffff" opacity="0.76"/><circle cx="144.8" cy="72.1" r="0.64" fill="#fff6e6" opacity="0.62"/><circle cx="90.4" cy="290.8" r="1.27" fill="#cfe0ff" opacity="0.65"/><circle cx="356.1" cy="282.2" r="1.24" fill="#cfe0ff" opacity="0.72"/><circle cx="213.8" cy="157.1" r="1.2" fill="#ffffff" opacity="0.7"/><circle cx="124.2" cy="89.9" r="1.44" fill="#ffffff" opacity="0.5"/><circle cx="262.6" cy="437.6" r="1.38" fill="#ffffff" opacity="0.61"/><circle cx="59.0" cy="209.1" r="1.41" fill="#dbe6ff" opacity="0.53"/><circle cx="210.8" cy="481.0" r="0.59" fill="#ffffff" opacity="0.76"/><circle cx="170.1" cy="175.1" r="1.1" fill="#ffffff" opacity="0.89"/><circle cx="420.0" cy="472.3" r="1.07" fill="#ffffff" opacity="0.82"/><circle cx="365.6" cy="154.8" r="1.19" fill="#dbe6ff" opacity="0.82"/><circle cx="142.3" cy="192.9" r="1.3" fill="#dbe6ff" opacity="0.46"/><circle cx="177.7" cy="305.5" r="1.09" fill="#ffffff" opacity="0.57"/><circle cx="64.7" cy="123.8" r="0.97" fill="#ffffff" opacity="0.93"/><circle cx="83.2" cy="200.8" r="0.83" fill="#dbe6ff" opacity="0.53"/><circle cx="432.0" cy="139.2" r="1.0" fill="#dbe6ff" opacity="0.65"/><circle cx="478.9" cy="75.5" r="0.71" fill="#ffffff" opacity="0.58"/><circle cx="6.0" cy="415.5" r="0.72" fill="#ffffff" opacity="0.61"/><circle cx="209.5" cy="184.6" r="1.18" fill="#fff6e6" opacity="0.97"/><circle cx="429.6" cy="475.1" r="1.29" fill="#dbe6ff" opacity="0.86"/><circle cx="449.8" cy="390.0" r="1.55" fill="#dbe6ff" opacity="0.89"/><circle cx="199.0" cy="197.1" r="1.08" fill="#ffffff" opacity="0.67"/><circle cx="33.7" cy="104.4" r="0.69" fill="#ffffff" opacity="0.64"/><circle cx="51.2" cy="283.4" r="1.14" fill="#cfe0ff" opacity="0.97"/><circle cx="12.8" cy="437.2" r="1.24" fill="#ffffff" opacity="0.53"/><circle cx="477.7" cy="301.1" r="1.07" fill="#dbe6ff" opacity="0.51"/><circle cx="496.6" cy="233.0" r="1.08" fill="#ffffff" opacity="0.5"/><circle cx="374.8" cy="370.2" r="1.07" fill="#cfe0ff" opacity="0.83"/><circle cx="11.5" cy="475.5" r="1.13" fill="#cfe0ff" opacity="0.53"/><circle cx="457.1" cy="379.1" r="0.86" fill="#ffffff" opacity="0.8"/><circle cx="348.1" cy="130.6" r="0.94" fill="#ffffff" opacity="0.54"/><circle cx="266.3" cy="389.5" r="0.9" fill="#ffffff" opacity="0.57"/><circle cx="403.0" cy="409.2" r="1.39" fill="#cfe0ff" opacity="0.57"/><circle cx="246.4" cy="365.5" r="1.69" fill="#dbe6ff" opacity="0.88"/><circle cx="129.6" cy="346.3" r="1.65" fill="#fff6e6" opacity="0.7"/><circle cx="494.0" cy="477.5" r="0.94" fill="#ffffff" opacity="0.57"/><circle cx="235.0" cy="168.9" r="1.08" fill="#cfe0ff" opacity="0.99"/><circle cx="420.2" cy="239.7" r="1.28" fill="#ffffff" opacity="0.89"/><circle cx="417.3" cy="60.0" r="0.97" fill="#ffffff" opacity="0.84"/><circle cx="239.0" cy="89.3" r="1.45" fill="#fff6e6" opacity="0.63"/><circle cx="197.9" cy="200.7" r="1.64" fill="#ffffff" opacity="0.85"/><circle cx="496.6" cy="13.8" r="1.21" fill="#fff6e6" opacity="0.71"/><circle cx="73.1" cy="413.3" r="1.68" fill="#ffffff" opacity="0.81"/><circle cx="78.0" cy="274.1" r="0.53" fill="#fff6e6" opacity="0.89"/><circle cx="324.8" cy="263.3" r="1.62" fill="#ffffff" opacity="0.69"/><circle cx="413.1" cy="105.5" r="0.8" fill="#ffffff" opacity="0.61"/><circle cx="381.8" cy="163.0" r="1.15" fill="#ffffff" opacity="0.91"/><circle cx="455.0" cy="176.9" r="1.05" fill="#cfe0ff" opacity="0.77"/><circle cx="210.3" cy="458.9" r="1.1" fill="#cfe0ff" opacity="0.74"/><circle cx="255.3" cy="436.4" r="1.43" fill="#ffffff" opacity="0.78"/><circle cx="86.2" cy="236.7" r="1.37" fill="#ffffff" opacity="0.76"/><circle cx="341.2" cy="265.4" r="1.08" fill="#cfe0ff" opacity="0.88"/><circle cx="28.4" cy="95.7" r="0.55" fill="#dbe6ff" opacity="0.5"/><circle cx="280.9" cy="380.0" r="1.59" fill="#cfe0ff" opacity="0.69"/><circle cx="486.7" cy="303.1" r="0.74" fill="#cfe0ff" opacity="0.6"/><circle cx="266.6" cy="239.0" r="1.63" fill="#ffffff" opacity="0.83"/><circle cx="461.4" cy="446.4" r="0.74" fill="#dbe6ff" opacity="0.7"/><circle cx="60.8" cy="221.1" r="0.59" fill="#ffffff" opacity="0.58"/><circle cx="106.3" cy="151.4" r="0.65" fill="#fff6e6" opacity="0.88"/><circle cx="321.7" cy="183.1" r="0.8" fill="#dbe6ff" opacity="0.53"/><circle cx="109.8" cy="476.3" r="0.98" fill="#fff6e6" opacity="0.72"/><circle cx="416.2" cy="80.7" r="1.02" fill="#ffffff" opacity="0.73"/><circle cx="210.6" cy="178.3" r="0.61" fill="#ffffff" opacity="0.65"/><circle cx="277.0" cy="220.2" r="0.52" fill="#cfe0ff" opacity="0.63"/><circle cx="147.7" cy="480.4" r="0.64" fill="#ffffff" opacity="0.96"/><circle cx="485.8" cy="52.4" r="0.82" fill="#ffffff" opacity="0.47"/><circle cx="135.2" cy="64.8" r="1.01" fill="#ffffff" opacity="0.95"/><circle cx="203.0" cy="268.3" r="1.12" fill="#ffffff" opacity="0.72"/><circle cx="44.7" cy="28.8" r="1.33" fill="#ffffff" opacity="0.68"/><circle cx="134.5" cy="8.4" r="0.61" fill="#cfe0ff" opacity="0.59"/><circle cx="428.1" cy="33.3" r="1.54" fill="#ffffff" opacity="0.7"/><circle cx="497.2" cy="208.9" r="1.6" fill="#ffffff" opacity="0.79"/><circle cx="263.5" cy="119.2" r="0.63" fill="#ffffff" opacity="0.54"/><circle cx="90.6" cy="466.1" r="1.25" fill="#ffffff" opacity="0.74"/><circle cx="145.0" cy="250.0" r="0.71" fill="#ffffff" opacity="0.64"/><circle cx="497.2" cy="18.5" r="0.52" fill="#ffffff" opacity="0.73"/><circle cx="257.1" cy="122.8" r="1.04" fill="#fff6e6" opacity="0.81"/><circle cx="216.1" cy="247.5" r="1.5" fill="#cfe0ff" opacity="0.67"/><circle cx="153.9" cy="107.6" r="0.78" fill="#fff6e6" opacity="0.56"/><circle cx="364.4" cy="69.9" r="1.69" fill="#ffffff" opacity="0.99"/><circle cx="7.1" cy="312.7" r="1.56" fill="#ffffff" opacity="0.69"/><circle cx="42.2" cy="420.6" r="1.54" fill="#ffffff" opacity="0.82"/><circle cx="299.4" cy="346.3" r="0.55" fill="#ffffff" opacity="0.55"/><circle cx="222.9" cy="131.6" r="1.65" fill="#cfe0ff" opacity="0.98"/><circle cx="161.8" cy="17.2" r="1.56" fill="#ffffff" opacity="0.57"/><circle cx="0.5" cy="190.8" r="1.07" fill="#ffffff" opacity="0.73"/><circle cx="124.1" cy="388.1" r="0.61" fill="#ffffff" opacity="0.9"/><circle cx="199.8" cy="20.8" r="0.53" fill="#ffffff" opacity="0.62"/><circle cx="42.2" cy="478.8" r="1.52" fill="#fff6e6" opacity="0.54"/><circle cx="392.0" cy="298.3" r="1.42" fill="#dbe6ff" opacity="0.85"/><circle cx="74.7" cy="362.1" r="1.27" fill="#fff6e6" opacity="0.47"/><circle cx="446.0" cy="313.7" r="1.38" fill="#ffffff" opacity="0.9"/><circle cx="454.9" cy="376.4" r="1.18" fill="#ffffff" opacity="0.9"/><circle cx="413.2" cy="292.0" r="1.57" fill="#fff6e6" opacity="0.83"/><circle cx="321.4" cy="42.5" r="0.55" fill="#ffffff" opacity="0.8"/><circle cx="188.3" cy="225.7" r="0.56" fill="#cfe0ff" opacity="0.46"/><circle cx="340.3" cy="244.6" r="0.5" fill="#fff6e6" opacity="0.89"/><circle cx="466.3" cy="448.9" r="0.61" fill="#fff6e6" opacity="0.74"/><circle cx="368.4" cy="126.1" r="0.59" fill="#fff6e6" opacity="0.6"/><circle cx="378.2" cy="115.4" r="1.28" fill="#dbe6ff" opacity="0.7"/><circle cx="38.4" cy="455.2" r="0.84" fill="#fff6e6" opacity="0.48"/><circle cx="321.4" cy="38.7" r="0.68" fill="#fff6e6" opacity="0.59"/><circle cx="346.4" cy="310.6" r="0.66" fill="#dbe6ff" opacity="0.72"/><circle cx="134.4" cy="336.0" r="1.33" fill="#ffffff" opacity="0.82"/><circle cx="354.4" cy="142.8" r="1.06" fill="#cfe0ff" opacity="0.87"/><circle cx="99.6" cy="489.1" r="1.62" fill="#dbe6ff" opacity="0.46"/><circle cx="38.2" cy="253.3" r="1.69" fill="#dbe6ff" opacity="1.0"/><circle cx="104.9" cy="472.8" r="0.75" fill="#ffffff" opacity="0.77"/><circle cx="373.7" cy="130.9" r="0.93" fill="#fff6e6" opacity="0.78"/><circle cx="254.4" cy="443.4" r="1.34" fill="#dbe6ff" opacity="0.58"/><circle cx="197.0" cy="79.5" r="1.64" fill="#dbe6ff" opacity="0.82"/><circle cx="151.0" cy="70.4" r="0.91" fill="#ffffff" opacity="0.62"/><circle cx="0.9" cy="375.4" r="1.51" fill="#ffffff" opacity="0.52"/><circle cx="356.5" cy="450.8" r="0.85" fill="#dbe6ff" opacity="0.65"/><circle cx="195.1" cy="435.0" r="0.59" fill="#ffffff" opacity="0.96"/><circle cx="427.1" cy="140.3" r="0.56" fill="#fff6e6" opacity="0.81"/><circle cx="467.8" cy="124.7" r="0.82" fill="#ffffff" opacity="0.73"/><circle cx="386.6" cy="392.6" r="1.01" fill="#fff6e6" opacity="0.47"/><circle cx="200.0" cy="437.9" r="1.16" fill="#ffffff" opacity="0.56"/><circle cx="24.7" cy="366.2" r="1.04" fill="#fff6e6" opacity="0.86"/><circle cx="434.7" cy="242.8" r="1.59" fill="#ffffff" opacity="0.75"/><circle cx="236.1" cy="171.8" r="0.86" fill="#fff6e6" opacity="0.86"/><circle cx="130.1" cy="328.0" r="0.86" fill="#dbe6ff" opacity="0.76"/><circle cx="59.9" cy="321.6" r="0.59" fill="#dbe6ff" opacity="0.73"/><circle cx="275.2" cy="226.5" r="0.9" fill="#dbe6ff" opacity="0.87"/><circle cx="69.8" cy="96.2" r="0.61" fill="#ffffff" opacity="0.64"/><circle cx="159.6" cy="184.2" r="1.47" fill="#ffffff" opacity="0.56"/><circle cx="374.8" cy="206.4" r="1.0" fill="#dbe6ff" opacity="0.74"/><circle cx="135.1" cy="376.1" r="1.1" fill="#ffffff" opacity="0.77"/><circle cx="62.9" cy="251.7" r="1.26" fill="#ffffff" opacity="0.92"/><circle cx="46.3" cy="448.4" r="0.96" fill="#dbe6ff" opacity="0.81"/><circle cx="477.0" cy="424.3" r="1.55" fill="#ffffff" opacity="0.46"/><circle cx="212.6" cy="381.8" r="1.47" fill="#dbe6ff" opacity="0.98"/><circle cx="0.1" cy="195.8" r="1.61" fill="#dbe6ff" opacity="0.9"/><circle cx="486.1" cy="124.2" r="0.63" fill="#cfe0ff" opacity="0.53"/><circle cx="485.9" cy="54.4" r="1.49" fill="#dbe6ff" opacity="0.84"/><circle cx="42.5" cy="388.4" r="0.5" fill="#cfe0ff" opacity="0.52"/><circle cx="460.0" cy="322.8" r="0.86" fill="#ffffff" opacity="0.52"/><circle cx="264.1" cy="218.7" r="1.42" fill="#ffffff" opacity="0.5"/><circle cx="262.2" cy="291.4" r="0.97" fill="#cfe0ff" opacity="0.57"/><circle cx="0.6" cy="268.7" r="1.7" fill="#ffffff" opacity="0.6"/><circle cx="322.3" cy="441.9" r="1.07" fill="#ffffff" opacity="0.58"/><circle cx="14.6" cy="205.9" r="1.28" fill="#ffffff" opacity="0.48"/><circle cx="249.2" cy="337.2" r="1.0" fill="#fff6e6" opacity="0.59"/><circle cx="212.2" cy="185.1" r="1.09" fill="#fff6e6" opacity="0.83"/><circle cx="210.3" cy="341.3" r="0.74" fill="#fff6e6" opacity="0.89"/><circle cx="422.6" cy="33.7" r="1.09" fill="#ffffff" opacity="0.56"/><circle cx="115.4" cy="110.7" r="1.41" fill="#cfe0ff" opacity="0.61"/><circle cx="247.9" cy="93.7" r="0.77" fill="#fff6e6" opacity="0.68"/><circle cx="28.2" cy="297.4" r="1.61" fill="#ffffff" opacity="0.48"/><circle cx="487.1" cy="71.0" r="0.56" fill="#dbe6ff" opacity="0.48"/><circle cx="224.8" cy="356.0" r="0.88" fill="#ffffff" opacity="0.51"/><circle cx="465.8" cy="164.6" r="0.72" fill="#fff6e6" opacity="0.96"/><circle cx="233.8" cy="155.9" r="1.37" fill="#ffffff" opacity="0.91"/><circle cx="221.2" cy="54.5" r="0.59" fill="#dbe6ff" opacity="0.49"/><circle cx="477.8" cy="61.9" r="1.66" fill="#ffffff" opacity="0.56"/><circle cx="384.4" cy="154.3" r="1.46" fill="#fff6e6" opacity="0.5"/><circle cx="236.7" cy="186.4" r="1.6" fill="#ffffff" opacity="0.56"/><circle cx="368.7" cy="237.3" r="1.26" fill="#fff6e6" opacity="0.59"/><circle cx="383.3" cy="20.3" r="0.54" fill="#ffffff" opacity="0.48"/><circle cx="128.5" cy="373.6" r="1.58" fill="#ffffff" opacity="0.64"/><circle cx="167.5" cy="476.9" r="0.55" fill="#fff6e6" opacity="0.86"/><circle cx="158.2" cy="137.8" r="0.5" fill="#fff6e6" opacity="0.87"/><circle cx="473.2" cy="32.7" r="1.49" fill="#fff6e6" opacity="0.51"/><circle cx="478.4" cy="477.0" r="0.96" fill="#dbe6ff" opacity="0.59"/><circle cx="407.4" cy="66.4" r="1.1" fill="#fff6e6" opacity="0.45"/><circle cx="151.7" cy="346.1" r="0.68" fill="#ffffff" opacity="0.58"/><circle cx="230.4" cy="391.9" r="1.21" fill="#dbe6ff" opacity="0.73"/><circle cx="376.4" cy="123.7" r="0.58" fill="#cfe0ff" opacity="0.47"/><circle cx="272.3" cy="80.3" r="1.01" fill="#ffffff" opacity="0.51"/><circle cx="132.4" cy="42.0" r="0.62" fill="#fff6e6" opacity="0.72"/><circle cx="486.1" cy="86.6" r="0.66" fill="#fff6e6" opacity="0.7"/><circle cx="117.5" cy="269.3" r="1.43" fill="#ffffff" opacity="0.87"/><circle cx="146.9" cy="283.4" r="0.95" fill="#ffffff" opacity="0.86"/><circle cx="219.7" cy="92.9" r="0.78" fill="#cfe0ff" opacity="0.6"/><circle cx="94.1" cy="32.4" r="0.8" fill="#cfe0ff" opacity="0.59"/><circle cx="115.7" cy="404.2" r="1.28" fill="#ffffff" opacity="1.0"/><circle cx="2.2" cy="441.4" r="0.78" fill="#ffffff" opacity="0.7"/><circle cx="20.2" cy="146.8" r="0.64" fill="#cfe0ff" opacity="0.55"/><circle cx="97.1" cy="37.6" r="1.12" fill="#cfe0ff" opacity="0.55"/><circle cx="130.0" cy="388.9" r="1.63" fill="#cfe0ff" opacity="0.51"/><circle cx="354.9" cy="174.8" r="0.54" fill="#ffffff" opacity="0.64"/><circle cx="102.0" cy="127.5" r="1.22" fill="#ffffff" opacity="0.81"/><circle cx="407.4" cy="409.4" r="0.99" fill="#cfe0ff" opacity="0.65"/><circle cx="156.1" cy="101.7" r="1.45" fill="#ffffff" opacity="0.75"/><circle cx="204.1" cy="397.9" r="1.3" fill="#cfe0ff" opacity="0.54"/><circle cx="45.6" cy="81.8" r="1.33" fill="#ffffff" opacity="0.68"/><circle cx="333.9" cy="208.9" r="0.56" fill="#ffffff" opacity="0.86"/><circle cx="207.0" cy="9.1" r="1.42" fill="#fff6e6" opacity="0.89"/><circle cx="98.6" cy="364.0" r="0.74" fill="#ffffff" opacity="0.45"/><circle cx="211.9" cy="410.2" r="0.99" fill="#dbe6ff" opacity="0.94"/><circle cx="386.5" cy="65.0" r="0.56" fill="#dbe6ff" opacity="0.53"/><circle cx="44.5" cy="311.1" r="0.95" fill="#ffffff" opacity="0.73"/><circle cx="174.0" cy="80.9" r="0.71" fill="#dbe6ff" opacity="0.49"/><circle cx="245.3" cy="402.4" r="1.66" fill="#ffffff" opacity="0.56"/><circle cx="418.6" cy="21.7" r="1.6" fill="#cfe0ff" opacity="0.62"/><circle cx="463.1" cy="193.9" r="1.59" fill="#ffffff" opacity="0.79"/><circle cx="320.2" cy="428.3" r="1.25" fill="#ffffff" opacity="0.79"/><circle cx="414.6" cy="91.5" r="0.76" fill="#cfe0ff" opacity="0.67"/><circle cx="78.2" cy="179.6" r="0.68" fill="#ffffff" opacity="0.98"/><circle cx="20.5" cy="281.2" r="1.41" fill="#ffffff" opacity="0.47"/><circle cx="58.9" cy="299.8" r="1.16" fill="#ffffff" opacity="0.79"/><circle cx="324.5" cy="154.1" r="0.8" fill="#ffffff" opacity="0.66"/><circle cx="223.4" cy="219.2" r="0.53" fill="#dbe6ff" opacity="0.79"/><circle cx="232.6" cy="223.4" r="1.24" fill="#ffffff" opacity="0.9"/><circle cx="405.3" cy="200.2" r="0.58" fill="#ffffff" opacity="0.65"/><circle cx="45.9" cy="221.0" r="1.11" fill="#fff6e6" opacity="0.47"/><circle cx="65.1" cy="461.1" r="0.88" fill="#ffffff" opacity="0.85"/><circle cx="27.1" cy="252.0" r="0.95" fill="#ffffff" opacity="0.97"/><circle cx="12.9" cy="33.2" r="1.24" fill="#ffffff" opacity="0.83"/><circle cx="96.9" cy="490.9" r="1.09" fill="#ffffff" opacity="0.98"/><circle cx="343.1" cy="360.5" r="0.77" fill="#cfe0ff" opacity="0.91"/><circle cx="378.1" cy="79.4" r="1.58" fill="#dbe6ff" opacity="0.6"/><circle cx="71.8" cy="251.1" r="1.6" fill="#ffffff" opacity="0.56"/><circle cx="307.9" cy="118.7" r="0.95" fill="#dbe6ff" opacity="0.56"/><circle cx="80.6" cy="468.2" r="1.32" fill="#ffffff" opacity="0.94"/><circle cx="396.1" cy="132.2" r="1.42" fill="#ffffff" opacity="0.48"/><circle cx="483.1" cy="226.5" r="1.13" fill="#ffffff" opacity="0.83"/><circle cx="126.0" cy="267.9" r="1.53" fill="#ffffff" opacity="0.86"/><circle cx="132.4" cy="495.2" r="1.19" fill="#ffffff" opacity="0.65"/><circle cx="221.1" cy="88.4" r="1.39" fill="#cfe0ff" opacity="0.48"/><circle cx="126.8" cy="319.6" r="1.68" fill="#fff6e6" opacity="0.77"/><circle cx="447.9" cy="366.5" r="1.4" fill="#ffffff" opacity="0.57"/><circle cx="308.0" cy="216.1" r="1.12" fill="#ffffff" opacity="0.94"/><circle cx="244.2" cy="306.3" r="0.55" fill="#cfe0ff" opacity="0.48"/><circle cx="177.5" cy="53.2" r="0.93" fill="#cfe0ff" opacity="0.57"/><circle cx="150.6" cy="66.9" r="0.94" fill="#ffffff" opacity="0.91"/><circle cx="67.4" cy="468.3" r="0.79" fill="#ffffff" opacity="0.53"/><circle cx="31.8" cy="72.3" r="1.3" fill="#ffffff" opacity="0.6"/><circle cx="483.6" cy="28.1" r="1.49" fill="#cfe0ff" opacity="0.94"/><circle cx="322.8" cy="221.9" r="1.62" fill="#ffffff" opacity="0.85"/><circle cx="82.5" cy="0.2" r="0.57" fill="#ffffff" opacity="0.46"/><circle cx="118.8" cy="29.2" r="1.43" fill="#cfe0ff" opacity="0.46"/><circle cx="328.4" cy="98.6" r="1.0" fill="#fff6e6" opacity="0.74"/><circle cx="253.5" cy="320.8" r="1.48" fill="#ffffff" opacity="0.55"/><circle cx="31.9" cy="313.0" r="1.69" fill="#dbe6ff" opacity="0.85"/><circle cx="357.7" cy="3.2" r="1.51" fill="#dbe6ff" opacity="0.86"/><circle cx="40.2" cy="327.8" r="0.71" fill="#ffffff" opacity="1.0"/><circle cx="116.1" cy="19.4" r="0.9" fill="#fff6e6" opacity="0.86"/><circle cx="471.4" cy="131.6" r="0.56" fill="#fff6e6" opacity="0.8"/><circle cx="218.0" cy="394.2" r="1.13" fill="#fff6e6" opacity="0.6"/><circle cx="464.3" cy="447.1" r="0.6" fill="#ffffff" opacity="0.73"/><circle cx="130.2" cy="118.1" r="1.39" fill="#fff6e6" opacity="0.97"/><circle cx="457.5" cy="96.0" r="0.97" fill="#dbe6ff" opacity="0.78"/><circle cx="453.8" cy="315.3" r="1.33" fill="#cfe0ff" opacity="0.82"/><circle cx="234.7" cy="419.9" r="1.34" fill="#dbe6ff" opacity="0.92"/><circle cx="477.8" cy="116.9" r="1.56" fill="#dbe6ff" opacity="0.88"/><circle cx="311.3" cy="38.9" r="1.59" fill="#ffffff" opacity="0.53"/><circle cx="55.9" cy="311.0" r="0.69" fill="#fff6e6" opacity="0.99"/><circle cx="14.4" cy="20.8" r="1.33" fill="#fff6e6" opacity="0.8"/><circle cx="33.9" cy="23.3" r="1.53" fill="#ffffff" opacity="0.87"/><circle cx="408.8" cy="409.8" r="1.57" fill="#fff6e6" opacity="0.49"/><circle cx="472.2" cy="53.6" r="0.75" fill="#ffffff" opacity="0.51"/><circle cx="474.6" cy="455.6" r="1.4" fill="#fff6e6" opacity="0.5"/><circle cx="316.1" cy="238.6" r="0.66" fill="#fff6e6" opacity="0.89"/><circle cx="102.5" cy="159.6" r="1.01" fill="#ffffff" opacity="0.46"/><circle cx="465.0" cy="24.2" r="1.41" fill="#cfe0ff" opacity="0.95"/><circle cx="251.9" cy="425.7" r="1.24" fill="#dbe6ff" opacity="0.47"/><circle cx="15.6" cy="259.3" r="0.62" fill="#ffffff" opacity="0.71"/><circle cx="268.9" cy="108.3" r="1.53" fill="#ffffff" opacity="0.5"/><circle cx="85.2" cy="0.6" r="0.74" fill="#ffffff" opacity="0.87"/><circle cx="2.2" cy="245.4" r="1.09" fill="#ffffff" opacity="0.89"/><circle cx="483.6" cy="296.3" r="1.65" fill="#cfe0ff" opacity="0.73"/><circle cx="471.9" cy="141.9" r="0.76" fill="#dbe6ff" opacity="0.83"/><circle cx="82.9" cy="469.4" r="1.42" fill="#fff6e6" opacity="0.72"/><circle cx="280.6" cy="52.3" r="0.89" fill="#dbe6ff" opacity="0.5"/><circle cx="445.9" cy="372.6" r="1.01" fill="#ffffff" opacity="0.81"/><circle cx="103.1" cy="131.6" r="1.58" fill="#dbe6ff" opacity="0.73"/><circle cx="491.2" cy="315.4" r="1.63" fill="#cfe0ff" opacity="0.52"/><circle cx="377.2" cy="376.5" r="1.28" fill="#ffffff" opacity="0.64"/><circle cx="260.9" cy="434.0" r="1.04" fill="#ffffff" opacity="0.75"/><circle cx="84.8" cy="219.4" r="1.43" fill="#ffffff" opacity="0.77"/><circle cx="167.0" cy="321.4" r="1.34" fill="#ffffff" opacity="0.73"/><circle cx="150.8" cy="351.6" r="1.51" fill="#ffffff" opacity="0.54"/><circle cx="487.4" cy="361.6" r="1.22" fill="#ffffff" opacity="0.64"/><circle cx="164.0" cy="94.6" r="1.67" fill="#ffffff" opacity="0.85"/><circle cx="82.3" cy="328.9" r="0.73" fill="#ffffff" opacity="0.53"/><circle cx="397.4" cy="366.6" r="1.02" fill="#fff6e6" opacity="0.56"/><circle cx="455.7" cy="140.4" r="1.56" fill="#ffffff" opacity="0.71"/><circle cx="199.5" cy="395.5" r="1.33" fill="#fff6e6" opacity="0.73"/><circle cx="148.1" cy="11.1" r="0.81" fill="#ffffff" opacity="0.86"/><circle cx="370.5" cy="454.0" r="1.02" fill="#fff6e6" opacity="0.77"/><circle cx="323.6" cy="423.0" r="1.3" fill="#fff6e6" opacity="0.81"/><circle cx="350.0" cy="426.2" r="1.32" fill="#dbe6ff" opacity="0.8"/><circle cx="216.3" cy="129.9" r="1.34" fill="#ffffff" opacity="0.94"/><circle cx="391.2" cy="356.6" r="1.26" fill="#dbe6ff" opacity="0.59"/><circle cx="241.4" cy="9.8" r="1.53" fill="#fff6e6" opacity="0.74"/><circle cx="465.1" cy="91.5" r="1.29" fill="#dbe6ff" opacity="0.88"/><circle cx="415.9" cy="454.1" r="0.63" fill="#ffffff" opacity="0.59"/><circle cx="80.4" cy="390.9" r="1.63" fill="#ffffff" opacity="0.74"/><circle cx="423.6" cy="228.4" r="0.75" fill="#ffffff" opacity="0.71"/><circle cx="319.6" cy="414.5" r="1.13" fill="#dbe6ff" opacity="0.68"/><circle cx="105.0" cy="342.2" r="0.97" fill="#ffffff" opacity="0.87"/><circle cx="364.6" cy="307.0" r="1.27" fill="#dbe6ff" opacity="0.59"/><circle cx="199.8" cy="6.7" r="1.0" fill="#fff6e6" opacity="0.68"/><circle cx="337.4" cy="290.1" r="0.63" fill="#dbe6ff" opacity="0.62"/><circle cx="470.0" cy="263.5" r="0.76" fill="#dbe6ff" opacity="0.89"/><circle cx="231.1" cy="82.3" r="1.62" fill="#fff6e6" opacity="0.49"/><circle cx="96.6" cy="321.1" r="1.36" fill="#ffffff" opacity="0.9"/><circle cx="176.6" cy="319.4" r="1.48" fill="#dbe6ff" opacity="0.9"/><circle cx="498.1" cy="379.9" r="1.28" fill="#dbe6ff" opacity="0.88"/><circle cx="177.4" cy="425.3" r="0.82" fill="#ffffff" opacity="0.66"/><circle cx="491.4" cy="339.4" r="1.08" fill="#ffffff" opacity="0.89"/><circle cx="179.0" cy="327.2" r="0.88" fill="#cfe0ff" opacity="0.72"/><circle cx="318.7" cy="329.6" r="0.93" fill="#dbe6ff" opacity="0.96"/><circle cx="28.5" cy="413.9" r="1.59" fill="#ffffff" opacity="0.88"/><circle cx="265.3" cy="172.6" r="1.2" fill="#ffffff" opacity="0.81"/><circle cx="475.9" cy="328.0" r="0.8" fill="#ffffff" opacity="0.51"/><circle cx="427.1" cy="92.8" r="1.04" fill="#ffffff" opacity="0.88"/><circle cx="452.0" cy="395.8" r="0.7" fill="#cfe0ff" opacity="0.94"/><circle cx="488.6" cy="45.2" r="1.58" fill="#fff6e6" opacity="0.75"/><circle cx="419.4" cy="98.7" r="1.33" fill="#fff6e6" opacity="0.74"/><circle cx="419.6" cy="335.6" r="0.64" fill="#dbe6ff" opacity="0.52"/><circle cx="117.1" cy="69.7" r="1.09" fill="#dbe6ff" opacity="0.48"/><circle cx="452.7" cy="350.2" r="0.8" fill="#cfe0ff" opacity="0.54"/><circle cx="431.4" cy="3.3" r="1.51" fill="#cfe0ff" opacity="0.71"/><circle cx="248.8" cy="148.4" r="1.06" fill="#fff6e6" opacity="0.68"/><circle cx="37.7" cy="318.5" r="1.26" fill="#cfe0ff" opacity="0.47"/><circle cx="22.9" cy="368.3" r="1.7" fill="#ffffff" opacity="0.89"/><circle cx="255.3" cy="242.3" r="1.58" fill="#fff6e6" opacity="0.47"/><circle cx="207.8" cy="63.5" r="0.61" fill="#ffffff" opacity="0.81"/><circle cx="237.3" cy="262.8" r="1.42" fill="#dbe6ff" opacity="0.57"/><circle cx="171.0" cy="125.8" r="0.56" fill="#ffffff" opacity="0.61"/><circle cx="413.9" cy="201.9" r="1.1" fill="#cfe0ff" opacity="0.6"/><circle cx="172.4" cy="101.8" r="1.09" fill="#ffffff" opacity="0.51"/><circle cx="158.5" cy="149.6" r="1.2" fill="#ffffff" opacity="0.8"/><circle cx="199.4" cy="277.1" r="0.99" fill="#dbe6ff" opacity="0.77"/><circle cx="150.2" cy="3.1" r="0.73" fill="#cfe0ff" opacity="0.96"/><circle cx="383.0" cy="30.1" r="1.1" fill="#dbe6ff" opacity="0.75"/><circle cx="308.3" cy="313.4" r="1.34" fill="#fff6e6" opacity="0.78"/><circle cx="41.5" cy="19.7" r="1.26" fill="#ffffff" opacity="0.79"/><circle cx="50.7" cy="90.6" r="0.54" fill="#fff6e6" opacity="0.88"/><circle cx="6.7" cy="436.0" r="0.67" fill="#fff6e6" opacity="0.62"/><circle cx="129.0" cy="151.0" r="1.01" fill="#dbe6ff" opacity="0.63"/><circle cx="283.2" cy="289.1" r="1.6" fill="#cfe0ff" opacity="0.72"/><circle cx="19.7" cy="59.4" r="1.47" fill="#dbe6ff" opacity="0.77"/><circle cx="223.2" cy="7.1" r="0.96" fill="#fff6e6" opacity="0.78"/><circle cx="471.2" cy="238.7" r="4.2" fill="#ffffff" opacity="0.16"/><circle cx="471.2" cy="238.7" r="2.1" fill="#ffffff" opacity="0.55"/><circle cx="471.2" cy="238.7" r="1.0" fill="#ffffff" opacity="1"/><circle cx="209.7" cy="66.9" r="4.2" fill="#ffffff" opacity="0.16"/><circle cx="209.7" cy="66.9" r="2.1" fill="#ffffff" opacity="0.55"/><circle cx="209.7" cy="66.9" r="1.0" fill="#ffffff" opacity="1"/><circle cx="316.5" cy="117.6" r="4.2" fill="#ffffff" opacity="0.16"/><circle cx="316.5" cy="117.6" r="2.1" fill="#ffffff" opacity="0.55"/><circle cx="316.5" cy="117.6" r="1.0" fill="#ffffff" opacity="1"/><circle cx="89.8" cy="27.1" r="4.2" fill="#ffffff" opacity="0.16"/><circle cx="89.8" cy="27.1" r="2.1" fill="#ffffff" opacity="0.55"/><circle cx="89.8" cy="27.1" r="1.0" fill="#ffffff" opacity="1"/><circle cx="22.2" cy="334.5" r="4.2" fill="#ffffff" opacity="0.16"/><circle cx="22.2" cy="334.5" r="2.1" fill="#ffffff" opacity="0.55"/><circle cx="22.2" cy="334.5" r="1.0" fill="#ffffff" opacity="1"/><circle cx="76.0" cy="464.5" r="4.2" fill="#ffffff" opacity="0.16"/><circle cx="76.0" cy="464.5" r="2.1" fill="#ffffff" opacity="0.55"/><circle cx="76.0" cy="464.5" r="1.0" fill="#ffffff" opacity="1"/><circle cx="60.5" cy="420.0" r="4.2" fill="#ffffff" opacity="0.16"/><circle cx="60.5" cy="420.0" r="2.1" fill="#ffffff" opacity="0.55"/><circle cx="60.5" cy="420.0" r="1.0" fill="#ffffff" opacity="1"/><circle cx="79.3" cy="28.2" r="4.2" fill="#ffffff" opacity="0.16"/><circle cx="79.3" cy="28.2" r="2.1" fill="#ffffff" opacity="0.55"/><circle cx="79.3" cy="28.2" r="1.0" fill="#ffffff" opacity="1"/><circle cx="350.9" cy="131.4" r="4.2" fill="#ffffff" opacity="0.16"/><circle cx="350.9" cy="131.4" r="2.1" fill="#ffffff" opacity="0.55"/><circle cx="350.9" cy="131.4" r="1.0" fill="#ffffff" opacity="1"/><circle cx="357.4" cy="106.2" r="4.2" fill="#ffffff" opacity="0.16"/><circle cx="357.4" cy="106.2" r="2.1" fill="#ffffff" opacity="0.55"/><circle cx="357.4" cy="106.2" r="1.0" fill="#ffffff" opacity="1"/><circle cx="43.1" cy="376.1" r="4.2" fill="#ffffff" opacity="0.16"/><circle cx="43.1" cy="376.1" r="2.1" fill="#ffffff" opacity="0.55"/><circle cx="43.1" cy="376.1" r="1.0" fill="#ffffff" opacity="1"/><circle cx="348.2" cy="413.5" r="4.2" fill="#ffffff" opacity="0.16"/><circle cx="348.2" cy="413.5" r="2.1" fill="#ffffff" opacity="0.55"/><circle cx="348.2" cy="413.5" r="1.0" fill="#ffffff" opacity="1"/><circle cx="355.7" cy="58.8" r="4.2" fill="#ffffff" opacity="0.16"/><circle cx="355.7" cy="58.8" r="2.1" fill="#ffffff" opacity="0.55"/><circle cx="355.7" cy="58.8" r="1.0" fill="#ffffff" opacity="1"/><circle cx="309.2" cy="346.2" r="4.2" fill="#ffffff" opacity="0.16"/><circle cx="309.2" cy="346.2" r="2.1" fill="#ffffff" opacity="0.55"/><circle cx="309.2" cy="346.2" r="1.0" fill="#ffffff" opacity="1"/></svg>