<svg xmlns="http://www.w3.org/2000/svg" width="500" height="500" viewBox="0 0 500 500"><rect width="500" height="500" fill="#0a1026"/><defs><radialGradient id="neb" cx="50%%" cy="50%%" r="50%%"><stop offset="0%%" stop-color="#22366f" stop-opacity="0.14"/><stop offset="100%%" stop-color="#22366f" stop-opacity="0"/></radialGradient></defs><circle cx="231" cy="443" r="169" fill="url(#neb)"/><circle cx="231" cy="260" r="134" fill="url(#neb)"/><circle cx="94" cy="411" r="175" fill="url(#neb)"/><circle cx="237.9" cy="307.0" r="0.67" fill="#ffffff" opacity="0.57"/><circle cx="45.3" cy="404.8" r="1.12" fill="#cfe0ff" opacity="0.37"/><circle cx="482.4" cy="327.0" r="1.05" fill="#ffffff" opacity="0.43"/><circle cx="415.9" cy="31.6" r="0.53" fill="#ffffff" opacity="0.79"/><circle cx="389.1" cy="163.1" r="1.03" fill="#ffffff" opacity="0.45"/><circle cx="320.1" cy="249.9" r="1.1" fill="#dbe6ff" opacity="0.58"/><circle cx="203.4" cy="275.6" r="1.34" fill="#dbe6ff" opacity="0.39"/><circle cx="157.6" cy="114.8" r="0.76" fill="#ffffff" opacity="0.39"/><circle cx="200.2" cy="423.3" r="0.85" fill="#ffffff" opacity="0.83"/><circle cx="106.8" cy="463.5" r="0.55" fill="#cfe0ff" opacity="0.54"/><circle cx="209.9" cy="283.1" r="0.68" fill="#dbe6ff" opacity="0.69"/><circle cx="43.6" cy="166.3" r="1.37" fill="#ffffff" opacity="0.73"/><circle cx="67.3" cy="353.5" r="0.51" fill="#cfe0ff" opacity="0.58"/><circle cx="88.8" cy="279.6" r="0.9" fill="#ffffff" opacity="0.45"/><circle cx="209.6" cy="191.9" r="0.86" fill="#ffffff" opacity="0.85"/><circle cx="134.9" cy="485.5" r="1.22" fill="#ffffff" opacity="0.5"/><circle cx="105.4" cy="197.1" r="1.27" fill="#ffffff" opacity="0.67"/><circle cx="21.1" cy="73.2" r="0.9" fill="#dbe6ff" opacity="0.35"/><circle cx="415.1" cy="193.1" r="0.57" fill="#ffffff" opacity="0.45"/><circle cx="7.8" cy="184.3" r="1.06" fill="#cfe0ff" opacity="0.41"/><circle cx="416.2" cy="67.9" r="0.85" fill="#dbe6ff" opacity="0.66"/><circle cx="454.2" cy="408.9" r="0.72" fill="#ffffff" opacity="0.44"/><circle cx="343.5" cy="194.1" r="0.93" fill="#ffffff" opacity="0.39"/><circle cx="51.9" cy="19.3" r="1.37" fill="#cfe0ff" opacity="0.47"/><circle cx="128.5" cy="411.9" r="1.04" fill="#ffffff" opacity="0.5"/><circle cx="464.6" cy="488.6" r="0.61" fill="#ffffff" opacity="0.59"/><circle cx="140.1" cy="458.7" r="0.68" fill="#dbe6ff" opacity="0.36"/><circle cx="205.7" cy="124.5" r="0.54" fill="#ffffff" opacity="0.49"/><circle cx="46.1" cy="69.2" r="0.91" fill="#ffffff" opacity="0.52"/><circle cx="294.9" cy="461.8" r="0.93" fill="#dbe6ff" opacity="0.53"/><circle cx="481.4" cy="10.6" r="1.07" fill="#dbe6ff" opacity="0.59"/><circle cx="159.5" cy="499.7" r="0.57" fill="#ffffff" opacity="0.62"/><circle cx="450.1" cy="368.5" r="1.13" fill="#dbe6ff" opacity="0.75"/><circle cx="175.9" cy="342.6" r="1.31" fill="#cfe0ff" opacity="0.79"/><circle cx="472.1" cy="15.1" r="0.95" fill="#cfe0ff" opacity="0.36"/><circle cx="189.6" cy="6.2" r="0.57" fill="#ffffff" opacity="0.4"/><circle cx="496.7" cy="439.9" r="1.16" fill="#cfe0ff" opacity="0.54"/><circle cx="220.3" cy="419.2" r="0.58" fill="#ffffff" opacity="0.73"/><circle cx="155.1" cy="43.9" r="0.52" fill="#ffffff" opacity="0.83"/><circle cx="248.6" cy="307.3" r="1.33" fill="#ffffff" opacity="0.48"/><circle cx="184.0" cy="71.6" r="1.05" fill="#dbe6ff" opacity="0.61"/><circle cx="330.0" cy="221.0" r="1.3" fill="#dbe6ff" opacity="0.51"/><circle cx="99.3" cy="215.4" r="1.23" fill="#ffffff" opacity="0.81"/><circle cx="192.2" cy="291.6" r="0.78" fill="#cfe0ff" opacity="0.42"/><circle cx="175.4" cy="447.8" r="0.54" fill="#dbe6ff" opacity="0.38"/><circle cx="410.9" cy="56.4" r="0.92" fill="#cfe0ff" opacity="0.81"/><circle cx="191.3" cy="260.0" r="1.1" fill="#cfe0ff" opacity="0.71"/><circle cx="160.2" cy="414.4" r="0.75" fill="#dbe6ff" opacity="0.65"/><circle cx="285.3" cy="154.5" r="1.21" fill="#ffffff" opacity="0.36"/><circle cx="202.6" cy="95.0" r="1.19" fill="#ffffff" opacity="0.48"/><circle cx="398.4" cy="492.0" r="0.6" fill="#dbe6ff" opacity="0.4"/><circle cx="479.2" cy="342.2" r="0.68" fill="#ffffff" opacity="0.59"/><circle cx="357.1" cy="377.5" r="0.98" fill="#ffffff" opacity="0.37"/><circle cx="136.2" cy="172.9" r="1.13" fill="#ffffff" opacity="0.61"/><circle cx="196.8" cy="396.0" r="1.32" fill="#cfe0ff" opacity="0.39"/><circle cx="65.0" cy="226.8" r="1.06" fill="#cfe0ff" opacity="0.8"/><circle cx="275.0" cy="326.3" r="0.95" fill="#dbe6ff" opacity="0.76"/><circle cx="231.9" cy="325.7" r="0.68" fill="#ffffff" opacity="0.71"/><circle cx="106.6" cy="450.0" r="1.38" fill="#dbe6ff" opacity="0.84"/><circle cx="130.9" cy="359.1" r="0.51" fill="#ffffff" opacity="0.6"/><circle cx="220.5" cy="275.2" r="1.19" fill="#ffffff" opacity="0.59"/><circle cx="109.1" cy="433.8" r="0.89" fill="#dbe6ff" opacity="0.37"/><circle cx="343.3" cy="458.0" r="0.92" fill="#cfe0ff" opacity="0.85"/><circle cx="472.9" cy="246.3" r="1.35" fill="#ffffff" opacity="0.39"/><circle cx="219.7" cy="279.4" r="1.25" fill="#ffffff" opacity="0.63"/><circle cx="261.4" cy="421.8" r="1.0" fill="#cfe0ff" opacity="0.51"/><circle cx="477.4" cy="435.0" r="1.05" fill="#ffffff" opacity="0.5"/><circle cx="484.2" cy="262.1" r="1.02" fill="#ffffff" opacity="0.45"/><circle cx="251.6" cy="302.6" r="0.52" fill="#cfe0ff" opacity="0.83"/><circle cx="272.0" cy="494.7" r="0.61" fill="#ffffff" opacity="0.4"/><circle cx="33.0" cy="269.4" r="0.87" fill="#cfe0ff" opacity="0.83"/><circle cx="134.6" cy="236.6" r="0.61" fill="#cfe0ff" opacity="0.57"/><circle cx="262.5" cy="54.3" r="0.88" fill="#dbe6ff" opacity="0.36"/><circle cx="64.7" cy="389.6" r="0.52" fill="#ffffff" opacity="0.45"/><circle cx="5.9" cy="142.0" r="1.15" fill="#cfe0ff" opacity="0.47"/><circle cx="52.4" cy="365.4" r="0.61" fill="#dbe6ff" opacity="0.61"/><circle cx="358.8" cy="350.7" r="1.29" fill="#cfe0ff" opacity="0.36"/><circle cx="412.6" cy="307.9" r="0.98" fill="#ffffff" opacity="0.78"/><circle cx="264.8" cy="425.6" r="1.05" fill="#ffffff" opacity="0.78"/><circle cx="457.4" cy="313.9" r="0.81" fill="#dbe6ff" opacity="0.44"/><circle cx="445.3" cy="97.3" r="1.2" fill="#ffffff" opacity="0.45"/><circle cx="67.0" cy="119.7" r="1.15" fill="#ffffff" opacity="0.48"/><circle cx="217.4" cy="470.6" r="0.99" fill="#ffffff" opacity="0.7"/><circle cx="201.4" cy="342.6" r="0.52" fill="#dbe6ff" opacity="0.45"/><circle cx="455.7" cy="484.2" r="0.6" fill="#dbe6ff" opacity="0.6"/><circle cx="251.4" cy="342.8" r="0.67" fill="#ffffff" opacity="0.39"/><circle cx="12.2" cy="381.0" r="1.05" fill="#cfe0ff" opacity="0.8"/><circle cx="73.3" cy="92.3" r="0.68" fill="#dbe6ff" opacity="0.77"/><circle cx="463.4" cy="47.6" r="0.56" fill="#cfe0ff" opacity="0.83"/><circle cx="38.8" cy="48.4" r="0.85" fill="#dbe6ff" opacity="0.56"/><circle cx="215.0" cy="300.5" r="0.51" fill="#ffffff" opacity="0.7"/><circle cx="90.6" cy="227.0" r="1.17" fill="#ffffff" opacity="0.55"/><circle cx="302.4" cy="47.4" r="1.21" fill="#ffffff" opacity="0.51"/><circle cx="400.9" cy="352.3" r="1.27" fill="#cfe0ff" opacity="0.66"/><circle cx="284.8" cy="95.5" r="1.03" fill="#dbe6ff" opacity="0.52"/><circle cx="139.8" cy="58.1" r="1.17" fill="#cfe0ff" opacity="0.43"/><circle cx="66.6" cy="165.0" r="0.98" fill="#cfe0ff" opacity="0.53"/><circle cx="382.6" cy="202.9" r="1.15" fill="#dbe6ff" opacity="0.39"/><circle cx="150.8" cy="50.4" r="1.3" fill="#ffffff" opacity="0.85"/><circle cx="116.1" cy="472.3" r="1.1" fill="#cfe0ff" opacity="0.52"/><circle cx="284.8" cy="266.5" r="0.85" fill="#ffffff" opacity="0.85"/><circle cx="350.6" cy="380.9" r="1.38" fill="#ffffff" opacity="0.36"/><circle cx="369.4" cy="128.3" r="0.86" fill="#ffffff" opacity="0.38"/><circle cx="324.0" cy="5.4" r="0.73" fill="#dbe6ff" opacity="0.49"/><circle cx="275.0" cy="253.9" r="1.37" fill="#ffffff" opacity="0.63"/><circle cx="319.0" cy="404.8" r="0.57" fill="#ffffff" opacity="0.65"/><circle cx="193.2" cy="469.3" r="0.85" fill="#cfe0ff" opacity="0.84"/><circle cx="271.0" cy="298.3" r="0.89" fill="#dbe6ff" opacity="0.6"/><circle cx="263.4" cy="298.9" r="0.83" fill="#dbe6ff" opacity="0.49"/><circle cx="280.3" cy="141.8" r="1.14" fill="#ffffff" opacity="0.5"/><circle cx="386.2" cy="292.9" r="1.07" fill="#cfe0ff" opacity="0.55"/><circle cx="26.4" cy="157.6" r="0.86" fill="#dbe6ff" opacity="0.64"/><circle cx="36.8" cy="452.8" r="0.89" fill="#ffffff" opacity="0.59"/><circle cx="22.7" cy="49.2" r="1.23" fill="#ffffff" opacity="0.8"/><circle cx="489.4" cy="408.3" r="1.04" fill="#cfe0ff" opacity="0.41"/><circle cx="227.8" cy="101.8" r="0.55" fill="#ffffff" opacity="0.61"/><circle cx="181.7" cy="69.9" r="0.88" fill="#cfe0ff" opacity="0.65"/><circle cx="182.0" cy="371.9" r="1.23" fill="#dbe6ff" opacity="0.42"/><circle cx="367.1" cy="119.2" r="0.6" fill="#dbe6ff" opacity="0.8"/><circle cx="137.4" cy="304.9" r="1.15" fill="#ffffff" opacity="0.7"/><circle cx="316.6" cy="376.7" r="0.67" fill="#ffffff" opacity="0.47"/><circle cx="439.4" cy="19.8" r="0.55" fill="#cfe0ff" opacity="0.49"/><circle cx="13.5" cy="19.0" r="0.7" fill="#ffffff" opacity="0.49"/><circle cx="456.4" cy="80.4" r="0.71" fill="#cfe0ff" opacity="0.84"/><circle cx="239.3" cy="105.3" r="0.81" fill="#ffffff" opacity="0.72"/><circle cx="401.1" cy="223.7" r="1.24" fill="#ffffff" opacity="0.77"/><circle cx="222.2" cy="373.7" r="0.85" fill="#ffffff" opacity="0.43"/><circle cx="326.8" cy="494.6" r="0.79" fill="#ffffff" opacity="0.62"/><circle cx="213.8" cy="184.6" r="0.59" fill="#ffffff" opacity="0.79"/><circle cx="271.8" cy="216.0" r="1.01" fill="#cfe0ff" opacity="0.76"/><circle cx="161.5" cy="371.2" r="1.6" fill="#ffffff" opacity="0.9"/><circle cx="63.5" cy="123.8" r="1.6" fill="#ffffff" opacity="0.9"/><circle cx="321.3" cy="66.0" r="1.6" fill="#ffffff" opacity="0.9"/><circle cx="163.7" cy="349.0" r="1.6" fill="#ffffff" opacity="0.9"/><circle cx="335.4" cy="154.5" r="1.6" fill="#ffffff" opacity="0.9"/><circle cx="92.9" cy="187.4" r="1.6" fill="#ffffff" opacity="0.9"/></svg>